<mxfile host="65bd71144e">
    <diagram id="C5RBs43oDa-KdzZeNtuy" name="Page-1">
        <mxGraphModel dx="1894" dy="968" grid="1" gridSize="10" guides="1" tooltips="1" connect="1" arrows="1" fold="1" page="1" pageScale="1" pageWidth="827" pageHeight="1169" math="0" shadow="0">
            <root>
                <mxCell id="WIyWlLk6GJQsqaUBKTNV-0"/>
                <mxCell id="WIyWlLk6GJQsqaUBKTNV-1" parent="WIyWlLk6GJQsqaUBKTNV-0"/>
                <mxCell id="4U0QUv9YtshdcMQ2xNm--4" value="NewsGroup" style="swimlane;fontStyle=0;childLayout=stackLayout;horizontal=1;startSize=30;horizontalStack=0;resizeParent=1;resizeParentMax=0;resizeLast=0;collapsible=1;marginBottom=0;" parent="WIyWlLk6GJQsqaUBKTNV-1" vertex="1">
                    <mxGeometry x="30" y="643" width="160" height="120" as="geometry"/>
                </mxCell>
                <mxCell id="4U0QUv9YtshdcMQ2xNm--41" value="- id: int    " style="text;strokeColor=none;fillColor=none;align=left;verticalAlign=middle;spacingLeft=4;spacingRight=4;overflow=hidden;points=[[0,0.5],[1,0.5]];portConstraint=eastwest;rotatable=0;" parent="4U0QUv9YtshdcMQ2xNm--4" vertex="1">
                    <mxGeometry y="30" width="160" height="30" as="geometry"/>
                </mxCell>
                <mxCell id="4U0QUv9YtshdcMQ2xNm--39" value="- title: string" style="text;strokeColor=none;fillColor=none;align=left;verticalAlign=middle;spacingLeft=4;spacingRight=4;overflow=hidden;points=[[0,0.5],[1,0.5]];portConstraint=eastwest;rotatable=0;" parent="4U0QUv9YtshdcMQ2xNm--4" vertex="1">
                    <mxGeometry y="60" width="160" height="30" as="geometry"/>
                </mxCell>
                <mxCell id="4U0QUv9YtshdcMQ2xNm--40" value="- articles : vector&lt;Article&gt;" style="text;strokeColor=none;fillColor=none;align=left;verticalAlign=middle;spacingLeft=4;spacingRight=4;overflow=hidden;points=[[0,0.5],[1,0.5]];portConstraint=eastwest;rotatable=0;" parent="4U0QUv9YtshdcMQ2xNm--4" vertex="1">
                    <mxGeometry y="90" width="160" height="30" as="geometry"/>
                </mxCell>
                <mxCell id="4U0QUv9YtshdcMQ2xNm--34" value="Article" style="swimlane;fontStyle=0;childLayout=stackLayout;horizontal=1;startSize=30;horizontalStack=0;resizeParent=1;resizeParentMax=0;resizeLast=0;collapsible=1;marginBottom=0;" parent="WIyWlLk6GJQsqaUBKTNV-1" vertex="1">
                    <mxGeometry x="230" y="643" width="160" height="150" as="geometry"/>
                </mxCell>
                <mxCell id="4U0QUv9YtshdcMQ2xNm--35" value="- id : int" style="text;strokeColor=none;fillColor=none;align=left;verticalAlign=middle;spacingLeft=4;spacingRight=4;overflow=hidden;points=[[0,0.5],[1,0.5]];portConstraint=eastwest;rotatable=0;" parent="4U0QUv9YtshdcMQ2xNm--34" vertex="1">
                    <mxGeometry y="30" width="160" height="30" as="geometry"/>
                </mxCell>
                <mxCell id="4U0QUv9YtshdcMQ2xNm--37" value="- title : string" style="text;strokeColor=none;fillColor=none;align=left;verticalAlign=middle;spacingLeft=4;spacingRight=4;overflow=hidden;points=[[0,0.5],[1,0.5]];portConstraint=eastwest;rotatable=0;" parent="4U0QUv9YtshdcMQ2xNm--34" vertex="1">
                    <mxGeometry y="60" width="160" height="30" as="geometry"/>
                </mxCell>
                <mxCell id="4U0QUv9YtshdcMQ2xNm--36" value="- author : string" style="text;strokeColor=none;fillColor=none;align=left;verticalAlign=middle;spacingLeft=4;spacingRight=4;overflow=hidden;points=[[0,0.5],[1,0.5]];portConstraint=eastwest;rotatable=0;" parent="4U0QUv9YtshdcMQ2xNm--34" vertex="1">
                    <mxGeometry y="90" width="160" height="30" as="geometry"/>
                </mxCell>
                <mxCell id="4U0QUv9YtshdcMQ2xNm--38" value="- text : string" style="text;strokeColor=none;fillColor=none;align=left;verticalAlign=middle;spacingLeft=4;spacingRight=4;overflow=hidden;points=[[0,0.5],[1,0.5]];portConstraint=eastwest;rotatable=0;" parent="4U0QUv9YtshdcMQ2xNm--34" vertex="1">
                    <mxGeometry y="120" width="160" height="30" as="geometry"/>
                </mxCell>
                <mxCell id="4U0QUv9YtshdcMQ2xNm--48" value="DataBase" style="swimlane;fontStyle=2;childLayout=stackLayout;horizontal=1;startSize=30;horizontalStack=0;resizeParent=1;resizeParentMax=0;resizeLast=0;collapsible=1;marginBottom=0;" parent="WIyWlLk6GJQsqaUBKTNV-1" vertex="1">
                    <mxGeometry x="560" y="233" width="320" height="210" as="geometry"/>
                </mxCell>
                <mxCell id="4U0QUv9YtshdcMQ2xNm--49" value="+ createNewsgroup(string): bool" style="text;strokeColor=none;fillColor=none;align=left;verticalAlign=middle;spacingLeft=4;spacingRight=4;overflow=hidden;points=[[0,0.5],[1,0.5]];portConstraint=eastwest;rotatable=0;" parent="4U0QUv9YtshdcMQ2xNm--48" vertex="1">
                    <mxGeometry y="30" width="320" height="30" as="geometry"/>
                </mxCell>
                <mxCell id="4U0QUv9YtshdcMQ2xNm--50" value="+ deleteNewsgroup(int): bool" style="text;strokeColor=none;fillColor=none;align=left;verticalAlign=middle;spacingLeft=4;spacingRight=4;overflow=hidden;points=[[0,0.5],[1,0.5]];portConstraint=eastwest;rotatable=0;" parent="4U0QUv9YtshdcMQ2xNm--48" vertex="1">
                    <mxGeometry y="60" width="320" height="30" as="geometry"/>
                </mxCell>
                <mxCell id="4U0QUv9YtshdcMQ2xNm--68" value="+ getNewsgroupArticles(int): map&lt;int, Articles&gt;" style="text;strokeColor=none;fillColor=none;align=left;verticalAlign=middle;spacingLeft=4;spacingRight=4;overflow=hidden;points=[[0,0.5],[1,0.5]];portConstraint=eastwest;rotatable=0;" parent="4U0QUv9YtshdcMQ2xNm--48" vertex="1">
                    <mxGeometry y="90" width="320" height="30" as="geometry"/>
                </mxCell>
                <mxCell id="4U0QUv9YtshdcMQ2xNm--66" value="+ getArticle(int, int): Article" style="text;strokeColor=none;fillColor=none;align=left;verticalAlign=middle;spacingLeft=4;spacingRight=4;overflow=hidden;points=[[0,0.5],[1,0.5]];portConstraint=eastwest;rotatable=0;" parent="4U0QUv9YtshdcMQ2xNm--48" vertex="1">
                    <mxGeometry y="120" width="320" height="30" as="geometry"/>
                </mxCell>
                <mxCell id="4U0QUv9YtshdcMQ2xNm--67" value="+ writeArticle(int, string, string, string): bool" style="text;strokeColor=none;fillColor=none;align=left;verticalAlign=middle;spacingLeft=4;spacingRight=4;overflow=hidden;points=[[0,0.5],[1,0.5]];portConstraint=eastwest;rotatable=0;" parent="4U0QUv9YtshdcMQ2xNm--48" vertex="1">
                    <mxGeometry y="150" width="320" height="30" as="geometry"/>
                </mxCell>
                <mxCell id="1" value="+ deleteArticle(int, int): int" style="text;strokeColor=none;fillColor=none;align=left;verticalAlign=middle;spacingLeft=4;spacingRight=4;overflow=hidden;points=[[0,0.5],[1,0.5]];portConstraint=eastwest;rotatable=0;" vertex="1" parent="4U0QUv9YtshdcMQ2xNm--48">
                    <mxGeometry y="180" width="320" height="30" as="geometry"/>
                </mxCell>
                <mxCell id="9" value="VolatileDatabase" style="swimlane;fontStyle=0;childLayout=stackLayout;horizontal=1;startSize=30;horizontalStack=0;resizeParent=1;resizeParentMax=0;resizeLast=0;collapsible=1;marginBottom=0;" vertex="1" parent="WIyWlLk6GJQsqaUBKTNV-1">
                    <mxGeometry x="460" y="523" width="220" height="90" as="geometry"/>
                </mxCell>
                <mxCell id="10" value="- newsgroups: map&lt;int, newsgroups&gt;" style="text;strokeColor=none;fillColor=none;align=left;verticalAlign=middle;spacingLeft=4;spacingRight=4;overflow=hidden;points=[[0,0.5],[1,0.5]];portConstraint=eastwest;rotatable=0;" vertex="1" parent="9">
                    <mxGeometry y="30" width="220" height="30" as="geometry"/>
                </mxCell>
                <mxCell id="57" value="+ writeChar(shared_ptr&lt;Connection&gt;)" style="text;strokeColor=none;fillColor=none;align=left;verticalAlign=middle;spacingLeft=4;spacingRight=4;overflow=hidden;points=[[0,0.5],[1,0.5]];portConstraint=eastwest;rotatable=0;" vertex="1" parent="9">
                    <mxGeometry y="60" width="220" height="30" as="geometry"/>
                </mxCell>
                <mxCell id="13" value="DiskDatabase" style="swimlane;fontStyle=0;childLayout=stackLayout;horizontal=1;startSize=30;horizontalStack=0;resizeParent=1;resizeParentMax=0;resizeLast=0;collapsible=1;marginBottom=0;" vertex="1" parent="WIyWlLk6GJQsqaUBKTNV-1">
                    <mxGeometry x="760" y="523" width="220" height="90" as="geometry"/>
                </mxCell>
                <mxCell id="14" value="- newsgroups: map&lt;int, newsgroups&gt;" style="text;strokeColor=none;fillColor=none;align=left;verticalAlign=middle;spacingLeft=4;spacingRight=4;overflow=hidden;points=[[0,0.5],[1,0.5]];portConstraint=eastwest;rotatable=0;" vertex="1" parent="13">
                    <mxGeometry y="30" width="220" height="30" as="geometry"/>
                </mxCell>
                <mxCell id="16" value="- path: string" style="text;strokeColor=none;fillColor=none;align=left;verticalAlign=middle;spacingLeft=4;spacingRight=4;overflow=hidden;points=[[0,0.5],[1,0.5]];portConstraint=eastwest;rotatable=0;" vertex="1" parent="13">
                    <mxGeometry y="60" width="220" height="30" as="geometry"/>
                </mxCell>
                <mxCell id="17" value="" style="endArrow=classic;html=1;" edge="1" parent="WIyWlLk6GJQsqaUBKTNV-1" source="9" target="1">
                    <mxGeometry width="50" height="50" relative="1" as="geometry">
                        <mxPoint x="270" y="513" as="sourcePoint"/>
                        <mxPoint x="320" y="463" as="targetPoint"/>
                        <Array as="points">
                            <mxPoint x="570" y="483"/>
                            <mxPoint x="720" y="483"/>
                        </Array>
                    </mxGeometry>
                </mxCell>
                <mxCell id="18" value="" style="endArrow=classic;html=1;" edge="1" parent="WIyWlLk6GJQsqaUBKTNV-1" source="13" target="1">
                    <mxGeometry width="50" height="50" relative="1" as="geometry">
                        <mxPoint x="180" y="533" as="sourcePoint"/>
                        <mxPoint x="370" y="463" as="targetPoint"/>
                        <Array as="points">
                            <mxPoint x="870" y="483"/>
                            <mxPoint x="720" y="483"/>
                        </Array>
                    </mxGeometry>
                </mxCell>
                <mxCell id="19" value="Connection" style="swimlane;fontStyle=0;childLayout=stackLayout;horizontal=1;startSize=30;horizontalStack=0;resizeParent=1;resizeParentMax=0;resizeLast=0;collapsible=1;marginBottom=0;" vertex="1" parent="WIyWlLk6GJQsqaUBKTNV-1">
                    <mxGeometry x="230" y="103" width="160" height="60" as="geometry"/>
                </mxCell>
                <mxCell id="23" value="Server" style="swimlane;fontStyle=0;childLayout=stackLayout;horizontal=1;startSize=30;horizontalStack=0;resizeParent=1;resizeParentMax=0;resizeLast=0;collapsible=1;marginBottom=0;" vertex="1" parent="WIyWlLk6GJQsqaUBKTNV-1">
                    <mxGeometry x="230" y="10" width="160" height="60" as="geometry"/>
                </mxCell>
                <mxCell id="24" value="&lt;&lt;Struct&gt;&gt;&#10;ConnectionClosedException" style="swimlane;fontStyle=0;childLayout=stackLayout;horizontal=1;startSize=30;horizontalStack=0;resizeParent=1;resizeParentMax=0;resizeLast=0;collapsible=1;marginBottom=0;" vertex="1" parent="WIyWlLk6GJQsqaUBKTNV-1">
                    <mxGeometry x="440" y="103" width="190" height="60" as="geometry"/>
                </mxCell>
                <mxCell id="35" value="MessageProtocol" style="swimlane;fontStyle=0;childLayout=stackLayout;horizontal=1;startSize=30;horizontalStack=0;resizeParent=1;resizeParentMax=0;resizeLast=0;collapsible=1;marginBottom=0;" vertex="1" parent="WIyWlLk6GJQsqaUBKTNV-1">
                    <mxGeometry x="30" y="233" width="360" height="360" as="geometry"/>
                </mxCell>
                <mxCell id="36" value="- db: Database*" style="text;strokeColor=none;fillColor=none;align=left;verticalAlign=middle;spacingLeft=4;spacingRight=4;overflow=hidden;points=[[0,0.5],[1,0.5]];portConstraint=eastwest;rotatable=0;" vertex="1" parent="35">
                    <mxGeometry y="30" width="360" height="30" as="geometry"/>
                </mxCell>
                <mxCell id="37" value="- conn: sharet_ptr&lt;Conncetion&gt;" style="text;strokeColor=none;fillColor=none;align=left;verticalAlign=middle;spacingLeft=4;spacingRight=4;overflow=hidden;points=[[0,0.5],[1,0.5]];portConstraint=eastwest;rotatable=0;" vertex="1" parent="35">
                    <mxGeometry y="60" width="360" height="30" as="geometry"/>
                </mxCell>
                <mxCell id="38" value="+ readNumber(shared_ptr&lt;Connection&gt;&amp;): int" style="text;strokeColor=none;fillColor=none;align=left;verticalAlign=middle;spacingLeft=4;spacingRight=4;overflow=hidden;points=[[0,0.5],[1,0.5]];portConstraint=eastwest;rotatable=0;" vertex="1" parent="35">
                    <mxGeometry y="90" width="360" height="30" as="geometry"/>
                </mxCell>
                <mxCell id="39" value="+ readProtocol(shared_ptr&lt;Connection&gt;&amp;): Protocol" style="text;strokeColor=none;fillColor=none;align=left;verticalAlign=middle;spacingLeft=4;spacingRight=4;overflow=hidden;points=[[0,0.5],[1,0.5]];portConstraint=eastwest;rotatable=0;" vertex="1" parent="35">
                    <mxGeometry y="120" width="360" height="30" as="geometry"/>
                </mxCell>
                <mxCell id="40" value="+ readString((shared_ptr&lt;Connection&gt;&amp;): string" style="text;strokeColor=none;fillColor=none;align=left;verticalAlign=middle;spacingLeft=4;spacingRight=4;overflow=hidden;points=[[0,0.5],[1,0.5]];portConstraint=eastwest;rotatable=0;" vertex="1" parent="35">
                    <mxGeometry y="150" width="360" height="30" as="geometry"/>
                </mxCell>
                <mxCell id="41" value="+ writeString(shared_ptr&lt;Connection&gt;&amp;, string&amp;)" style="text;strokeColor=none;fillColor=none;align=left;verticalAlign=middle;spacingLeft=4;spacingRight=4;overflow=hidden;points=[[0,0.5],[1,0.5]];portConstraint=eastwest;rotatable=0;" vertex="1" parent="35">
                    <mxGeometry y="180" width="360" height="30" as="geometry"/>
                </mxCell>
                <mxCell id="54" value="+ writeNumber(shared_ptr&lt;Connection&gt;&amp;, int)" style="text;strokeColor=none;fillColor=none;align=left;verticalAlign=middle;spacingLeft=4;spacingRight=4;overflow=hidden;points=[[0,0.5],[1,0.5]];portConstraint=eastwest;rotatable=0;" vertex="1" parent="35">
                    <mxGeometry y="210" width="360" height="30" as="geometry"/>
                </mxCell>
                <mxCell id="55" value="+ writeProtocol(shared_ptr&lt;Connection&gt;&amp;, Protocol)" style="text;strokeColor=none;fillColor=none;align=left;verticalAlign=middle;spacingLeft=4;spacingRight=4;overflow=hidden;points=[[0,0.5],[1,0.5]];portConstraint=eastwest;rotatable=0;" vertex="1" parent="35">
                    <mxGeometry y="240" width="360" height="30" as="geometry"/>
                </mxCell>
                <mxCell id="69" value="+ writeChar(shared_ptr&lt;Connection&gt;&amp; , char&amp;)" style="text;strokeColor=none;fillColor=none;align=left;verticalAlign=middle;spacingLeft=4;spacingRight=4;overflow=hidden;points=[[0,0.5],[1,0.5]];portConstraint=eastwest;rotatable=0;" vertex="1" parent="35">
                    <mxGeometry y="270" width="360" height="30" as="geometry"/>
                </mxCell>
                <mxCell id="68" value="+ readStringP(shared_ptr&lt;Connection&gt;&amp;)" style="text;strokeColor=none;fillColor=none;align=left;verticalAlign=middle;spacingLeft=4;spacingRight=4;overflow=hidden;points=[[0,0.5],[1,0.5]];portConstraint=eastwest;rotatable=0;" vertex="1" parent="35">
                    <mxGeometry y="300" width="360" height="30" as="geometry"/>
                </mxCell>
                <mxCell id="56" value="+ writeChar(shared_ptr&lt;Connection&gt;)" style="text;strokeColor=none;fillColor=none;align=left;verticalAlign=middle;spacingLeft=4;spacingRight=4;overflow=hidden;points=[[0,0.5],[1,0.5]];portConstraint=eastwest;rotatable=0;" vertex="1" parent="35">
                    <mxGeometry y="330" width="360" height="30" as="geometry"/>
                </mxCell>
                <mxCell id="70" value="Protocol" style="swimlane;fontStyle=0;childLayout=stackLayout;horizontal=1;startSize=30;horizontalStack=0;resizeParent=1;resizeParentMax=0;resizeLast=0;collapsible=1;marginBottom=0;" vertex="1" parent="WIyWlLk6GJQsqaUBKTNV-1">
                    <mxGeometry x="30" y="103" width="160" height="60" as="geometry"/>
                </mxCell>
                <mxCell id="85" value="" style="html=1;labelBackgroundColor=#ffffff;startArrow=none;startFill=0;startSize=6;endArrow=classic;endFill=1;endSize=6;jettySize=auto;orthogonalLoop=1;strokeWidth=1;dashed=1;fontSize=14;entryX=1;entryY=0.5;entryDx=0;entryDy=0;exitX=0;exitY=0.5;exitDx=0;exitDy=0;" edge="1" parent="WIyWlLk6GJQsqaUBKTNV-1" source="4U0QUv9YtshdcMQ2xNm--37" target="4U0QUv9YtshdcMQ2xNm--39">
                    <mxGeometry width="60" height="60" relative="1" as="geometry">
                        <mxPoint x="510" y="753" as="sourcePoint"/>
                        <mxPoint x="570" y="693" as="targetPoint"/>
                    </mxGeometry>
                </mxCell>
                <mxCell id="86" value="" style="html=1;labelBackgroundColor=#ffffff;startArrow=none;startFill=0;startSize=6;endArrow=classic;endFill=1;endSize=6;jettySize=auto;orthogonalLoop=1;strokeWidth=1;dashed=1;fontSize=14;" edge="1" parent="WIyWlLk6GJQsqaUBKTNV-1" source="4U0QUv9YtshdcMQ2xNm--48" target="4U0QUv9YtshdcMQ2xNm--40">
                    <mxGeometry width="60" height="60" relative="1" as="geometry">
                        <mxPoint x="250" y="728" as="sourcePoint"/>
                        <mxPoint x="440" y="883" as="targetPoint"/>
                        <Array as="points">
                            <mxPoint x="440" y="338"/>
                            <mxPoint x="440" y="843"/>
                            <mxPoint x="111" y="843"/>
                        </Array>
                    </mxGeometry>
                </mxCell>
                <mxCell id="87" value="" style="html=1;labelBackgroundColor=#ffffff;startArrow=none;startFill=0;startSize=6;endArrow=classic;endFill=1;endSize=6;jettySize=auto;orthogonalLoop=1;strokeWidth=1;dashed=1;fontSize=14;" edge="1" parent="WIyWlLk6GJQsqaUBKTNV-1" source="4U0QUv9YtshdcMQ2xNm--48" target="4U0QUv9YtshdcMQ2xNm--38">
                    <mxGeometry width="60" height="60" relative="1" as="geometry">
                        <mxPoint x="570" y="328" as="sourcePoint"/>
                        <mxPoint x="120.6400000000001" y="777.4100000000001" as="targetPoint"/>
                        <Array as="points">
                            <mxPoint x="440" y="338"/>
                            <mxPoint x="440" y="843"/>
                            <mxPoint x="310" y="843"/>
                        </Array>
                    </mxGeometry>
                </mxCell>
                <mxCell id="90" value="" style="html=1;labelBackgroundColor=#ffffff;startArrow=none;startFill=0;startSize=6;endArrow=classic;endFill=1;endSize=6;jettySize=auto;orthogonalLoop=1;strokeWidth=1;dashed=1;fontSize=14;" edge="1" parent="WIyWlLk6GJQsqaUBKTNV-1" source="35" target="70">
                    <mxGeometry width="60" height="60" relative="1" as="geometry">
                        <mxPoint x="340" y="593" as="sourcePoint"/>
                        <mxPoint x="400" y="533" as="targetPoint"/>
                        <Array as="points">
                            <mxPoint x="200" y="203"/>
                            <mxPoint x="110" y="203"/>
                        </Array>
                    </mxGeometry>
                </mxCell>
                <mxCell id="92" value="" style="html=1;labelBackgroundColor=#ffffff;startArrow=none;startFill=0;startSize=6;endArrow=classic;endFill=1;endSize=6;jettySize=auto;orthogonalLoop=1;strokeWidth=1;dashed=1;fontSize=14;" edge="1" parent="WIyWlLk6GJQsqaUBKTNV-1" source="35" target="19">
                    <mxGeometry width="60" height="60" relative="1" as="geometry">
                        <mxPoint x="155.71428571428567" y="243" as="sourcePoint"/>
                        <mxPoint x="130.71428571428567" y="173" as="targetPoint"/>
                        <Array as="points">
                            <mxPoint x="200" y="203"/>
                            <mxPoint x="310" y="203"/>
                        </Array>
                    </mxGeometry>
                </mxCell>
                <mxCell id="95" value="" style="html=1;labelBackgroundColor=#ffffff;startArrow=none;startFill=0;startSize=6;endArrow=classic;endFill=1;endSize=6;jettySize=auto;orthogonalLoop=1;strokeWidth=1;dashed=1;fontSize=14;" edge="1" parent="WIyWlLk6GJQsqaUBKTNV-1" source="35" target="24">
                    <mxGeometry width="60" height="60" relative="1" as="geometry">
                        <mxPoint x="340" y="593" as="sourcePoint"/>
                        <mxPoint x="400" y="533" as="targetPoint"/>
                        <Array as="points">
                            <mxPoint x="200" y="203"/>
                            <mxPoint x="535" y="203"/>
                        </Array>
                    </mxGeometry>
                </mxCell>
                <mxCell id="96" value="" style="html=1;labelBackgroundColor=#ffffff;startArrow=none;startFill=0;startSize=6;endArrow=classic;endFill=1;endSize=6;jettySize=auto;orthogonalLoop=1;strokeWidth=1;dashed=1;fontSize=14;" edge="1" parent="WIyWlLk6GJQsqaUBKTNV-1" source="23" target="19">
                    <mxGeometry width="60" height="60" relative="1" as="geometry">
                        <mxPoint x="580" y="510" as="sourcePoint"/>
                        <mxPoint x="640" y="450" as="targetPoint"/>
                    </mxGeometry>
                </mxCell>
                <mxCell id="99" value="" style="html=1;labelBackgroundColor=#ffffff;startArrow=none;startFill=0;startSize=6;endArrow=classic;endFill=1;endSize=6;jettySize=auto;orthogonalLoop=1;strokeWidth=1;dashed=1;fontSize=14;entryX=0;entryY=0.5;entryDx=0;entryDy=0;" edge="1" parent="WIyWlLk6GJQsqaUBKTNV-1" source="39" target="4U0QUv9YtshdcMQ2xNm--66">
                    <mxGeometry width="60" height="60" relative="1" as="geometry">
                        <mxPoint x="400" y="338" as="sourcePoint"/>
                        <mxPoint x="770" y="440" as="targetPoint"/>
                    </mxGeometry>
                </mxCell>
            </root>
        </mxGraphModel>
    </diagram>
</mxfile>